<?xml version="1.0" encoding="UTF-8" standalone="no"?>
<!-- Created with Inkscape (http://www.inkscape.org/) -->

<svg
   width="1024"
   height="1024"
   viewBox="0 0 270.93334 270.93334"
   version="1.1"
   id="svg5"
   xml:space="preserve"
   inkscape:version="1.2.2 (b0a8486541, 2022-12-01)"
   sodipodi:docname="logo.svg"
   inkscape:export-filename="test-logo.png"
   inkscape:export-xdpi="96"
   inkscape:export-ydpi="96"
   xmlns:inkscape="http://www.inkscape.org/namespaces/inkscape"
   xmlns:sodipodi="http://sodipodi.sourceforge.net/DTD/sodipodi-0.dtd"
   xmlns="http://www.w3.org/2000/svg"
   xmlns:svg="http://www.w3.org/2000/svg"><sodipodi:namedview
     id="namedview7"
     pagecolor="#ffffff"
     bordercolor="#000000"
     borderopacity="0.25"
     inkscape:showpageshadow="2"
     inkscape:pageopacity="0.0"
     inkscape:pagecheckerboard="0"
     inkscape:deskcolor="#d1d1d1"
     inkscape:document-units="mm"
     showgrid="false"
     inkscape:zoom="0.61580177"
     inkscape:cx="846.05148"
     inkscape:cy="423.83769"
     inkscape:window-width="1920"
     inkscape:window-height="1116"
     inkscape:window-x="0"
     inkscape:window-y="0"
     inkscape:window-maximized="1"
     inkscape:current-layer="layer1" /><defs
     id="defs2" /><g
     inkscape:label="Layer 1"
     inkscape:groupmode="layer"
     id="layer1"
     style="display:inline"><path
       id="path369"
       style="fill:#000000;fill-opacity:1;stroke-width:0.404173"
       d="m 250.68186,50.504411 c -3.17696,5.202932 -6.45259,9.574214 -9.54567,15.475541 l 4.29534,0.954464 c 3.49448,0.776778 6.88516,2.790395 8.79003,4.115998 l 1.28219,1.015503 c 0.93089,0.579209 0.6957,0.427008 1.92033,1.554912 4.09633,3.772773 8.78887,8.077778 11.27631,13.830681 l 1.37873,3.188435 0.27285,-1.700671 c 0.1502,-0.935222 0.28399,-4.682617 0.29559,-8.327657 0.0252,-7.532386 -0.59024,-11.137582 -2.68407,-15.726172 -1.33912,-2.934601 -4.5997,-6.984184 -7.25537,-9.011336 -0.93475,-0.713528 -3.57281,-2.213818 -5.86269,-3.333647 z"
       sodipodi:nodetypes="cccccsccccsscc" /><path
       id="path389"
       style="fill:#000000;fill-opacity:1;stroke-width:0.404173"
       d="m 237,70.819967 c -6.40702,0.0365 -10.31162,0.253662 -12.6478,0.704349 -4.66958,0.900836 -14.31043,4.530307 -18.24023,6.866765 -9.55356,5.680057 -17.75991,14.563132 -24.51789,26.539469 -6.03561,10.69623 -16.17692,22.39586 -28.88299,33.32096 -2.17538,1.87046 -5.79892,5.02667 -8.05222,7.01404 -2.25327,1.98736 -5.90534,5.17922 -8.11578,7.09259 -2.21049,1.91338 -5.07799,4.40016 -6.37171,5.52628 -3.28649,2.86084 -18.49427,16.50573 -22.43325,20.12797 -1.79647,1.65201 -6.29252,5.67993 -9.991125,8.95087 -3.698607,3.27094 -7.934983,7.05295 -9.414412,8.40414 -5.994908,5.47519 -21.156104,18.79354 -34.584453,30.38109 -4.861019,4.19467 -10.221654,8.89496 -11.912451,10.44484 -1.690791,1.54993 -3.734343,3.36135 -4.540808,4.02508 l -1.46606,1.20665 c 15.616439,13.66924 12.276866,11.88701 33.378841,29.22302 0.858954,0.0424 6.447718,-4.66145 13.357324,-11.24221 2.70037,-2.57189 5.732733,-5.34565 6.738607,-6.16396 1.00589,-0.81835 5.089548,-4.45073 9.074898,-8.07238 7.456889,-6.7763 15.207499,-13.64156 37.438029,-33.16232 42.73229,-37.52347 52.33629,-46.5896 60.43145,-57.04354 4.43536,-5.72773 11.02624,-15.11596 11.81995,-16.83722 0.29169,-0.63256 1.55609,-3.06315 2.81016,-5.40122 1.25412,-2.33806 4.40278,-8.97032 6.99699,-14.73812 2.59421,-5.76777 5.63822,-12.17627 6.76393,-14.24099 1.1257,-2.06471 2.37223,-4.42374 2.77037,-5.242055 0.79871,-1.641497 4.3736,-6.647644 6.17792,-8.651668 6.92124,-7.474058 12.46646,-9.565418 19.84892,-15.852263 1.69131,-1.295406 0.92022,-2.264998 1.15138,-1.530934 -0.0501,0.652836 -7.4311,-1.707103 -17.58759,-1.649233 z"
       sodipodi:nodetypes="ssssssscsscsscccsscssssssccccs" /><path
       style="fill:#000000;fill-opacity:1;stroke-width:0.404173"
       d="m 214.85352,47.519874 c 1.66334,0 -1.66347,-9.8e-5 -1.66347,1.623156 0,4.058732 3.35554,10.66112 6.56346,12.524007 3.36929,1.956594 9.2527,-0.404762 11.18071,-4.487581 0.81442,-1.724868 0.7977,-4.416596 -0.0336,-5.432744 -5.47481,-0.176643 -11.14295,-2.101574 -16.04711,-4.226838 z"
       id="path367"
       sodipodi:nodetypes="ssscccs" /><path
       style="fill:#000000;fill-opacity:1;stroke-width:0.404173"
       d="m 180.19314,49.546847 c -2.85513,0.02691 -5.28442,0.170975 -6.7443,0.455786 -5.23543,1.021398 -11.40255,2.675072 -13.03279,3.494877 -2.01768,1.014639 -5.36422,3.614201 -9.06301,7.040397 -1.47945,1.370408 -3.50962,3.020133 -4.51187,3.665926 l -1.82263,1.174089 1.42523,1.365808 c 12.42481,12.570013 13.91369,14.284799 24.17941,26.379268 2.67295,2.725823 5.00756,4.956287 5.18779,4.956287 0.18025,0 0.32763,-0.244779 0.32763,-0.543636 0,-0.814561 2.54486,-6.252181 3.74913,-8.010881 4.00911,-5.855021 10.90324,-12.0805 17.30954,-15.63057 5.3992,-2.992 11.7094,-5.9656 13.85651,-6.529834 l 1.86294,-0.489376 -2.73007,-2.9962 c -3.01774,-3.312073 -5.12759,-6.921215 -5.81359,-9.943579 -0.4494,-1.979968 -0.4494,-1.979835 -3.02979,-2.703194 -3.28443,-0.920712 -11.33207,-1.566209 -18.17306,-1.6738 -1.02613,-0.01614 -2.02538,-0.02034 -2.97707,-0.01137 z"
       id="path365" /><path
       style="fill:#000000;fill-opacity:1;stroke-width:0.404173"
       d="m 183.92004,29.425077 c -25.42828,0 -38.5221,0.14418 -38.5191,0.424781 0.002,0.233805 0.88817,1.728238 1.96939,3.320727 2.44593,3.602492 6.7184,7.714389 9.53275,9.174634 l 2.13527,1.107943 32.09262,0.226342 32.09261,0.225826 2.49184,1.507919 c 1.72533,1.044214 3.08342,2.309809 4.41369,4.11396 1.05673,1.433176 3.2178,3.665914 4.80229,4.961455 1.58449,1.295533 2.90348,3.089316 2.93108,3.089316 2.1823,-3.823113 4.61043,-9.448529 6.22856,-13.402899 l -3.71501,-4.223514 c -4.4152,-5.020147 -6.78158,-6.60231 -13.32116,-8.90385 l -4.6116,-1.62264 z"
       id="path363"
       sodipodi:nodetypes="scscccccsscccccs" /><path
       style="fill:#000000;fill-opacity:1;stroke-width:0.404173"
       d="M 0.16433105,5.1676432e-4 C -0.05642029,-0.01629238 -0.05249147,0.40362254 0.162264,1.4438395 0.76750719,4.3753194 5.5700975,19.637044 6.0316732,20.095931 78.918614,60.290925 73.512184,57.314081 7.8170939,33.038293 c -1.1927967,0 0.81976,6.286526 4.5537271,14.223422 l 2.991549,6.358785 2.861324,1.151867 c 62.472441,33.320228 76.129769,39.958459 4.095357,14.462167 -0.825324,-0.401982 -1.38342,-0.601187 -1.712557,-0.549321 -0.54856,0.08644 -0.461429,0.869666 0.08165,2.572453 0.687839,2.156709 8.968637,15.500509 13.145968,21.183203 43.924879,21.988051 43.424077,21.780531 10.644828,18.513601 -0.958894,1.06079 5.395886,10.29131 12.519132,18.18442 7.470113,8.27747 13.552155,12.60818 22.688538,16.15508 27.50971,4.01207 22.31848,-11.36902 15.910657,6.45129 -8.386889,7.06609 -16.588768,14.1548 -24.142713,20.86694 -3.46567,3.07947 -7.916272,6.96504 -9.890352,8.63462 -1.974066,1.66958 -7.480087,6.43907 -12.235429,10.59883 -4.755355,4.15976 -10.98057,9.52408 -13.833781,11.92072 -2.853225,2.39666 -6.830401,5.83048 -8.83822,7.63055 -2.007819,1.80005 -4.282658,3.73949 -5.055506,4.30981 l -1.405598,1.03715 1.947167,3.47679 c 1.070827,1.91225 2.584083,4.4332 3.363103,5.60224 0.779033,1.16904 1.707375,2.74741 2.062406,3.50728 0.355031,0.75988 0.770364,1.37869 0.923458,1.37769 0.153079,-0.002 3.055892,-2.44136 6.450252,-5.42034 3.394348,-2.97896 7.890409,-6.87732 9.991122,-8.66304 7.535482,-6.40553 31.42053,-27.27326 39.344885,-34.37464 2.478544,-2.22117 8.879511,-7.86468 14.224455,-12.54084 5.344914,-4.67609 11.382064,-10.04013 13.415714,-11.9202 2.03369,-1.88008 4.82017,-4.36688 6.19239,-5.52628 1.3722,-1.15942 4.34105,-3.86455 6.59701,-6.011 2.25599,-2.14644 5.71696,-5.22245 7.69152,-6.83576 1.97459,-1.61331 5.31807,-4.55114 7.42952,-6.5288 6.32991,-5.92872 9.35884,-8.5273 14.40636,-12.3579 2.64187,-2.00494 6.35986,-5.19818 8.26203,-7.09621 1.90214,-1.89804 4.27504,-4.07245 5.27306,-4.83226 0.99801,-0.7598 1.77599,-1.49291 1.72909,-1.62884 -0.047,-0.13592 -9.83337,-10.848556 -21.74751,-23.805787 C 129.03548,62.811126 125.87414,59.543416 124.50351,59.135925 122.88812,58.655654 122.16985,58.326723 106.00903,50.666675 87.787335,42.029785 74.696053,35.659331 67.093062,31.729846 65.248446,30.776486 61.058941,28.754351 57.783036,27.236064 54.507131,25.717779 48.281915,22.740083 43.949255,20.619413 39.616596,18.498742 33.958003,15.837255 31.374829,14.705046 28.791657,13.572829 24.295609,11.415377 21.383708,9.9105062 18.471823,8.4056195 12.630608,5.616372 8.4036214,3.7119181 4.1766497,1.8074644 0.51802496,0.15251922 0.27285156,0.03410645 0.23209281,0.01442454 0.19586696,0.00291808 0.16433105,5.1676432e-4 Z"
       id="path132"
       sodipodi:nodetypes="ccccccccssccsccssssscccsscsssssssscssscssssssccccc" /></g><g
     inkscape:groupmode="layer"
     id="layer3"
     inkscape:label="Layer 2"><path
       id="path13429"
       style="fill:#000000;fill-opacity:1;stroke:#00ffff;stroke-width:0.239014"
       d="M 248.10233 104.08529 L 233.47113 119.88908 A 85.930557 85.930557 0 0 1 210.77839 183.83326 A 85.930557 85.930557 0 0 1 148.78998 211.35606 L 134.77736 226.49192 A 99.173431 99.173431 0 0 0 224.84131 196.21221 A 99.173431 99.173431 0 0 0 248.10233 104.08529 z "
       transform="rotate(4.7045502)" /></g></svg>
